<?xml version="1.0" encoding="utf-8"?>
<!-- Generator: Adobe Illustrator 19.1.0, SVG Export Plug-In . SVG Version: 6.00 Build 0)  -->
<!DOCTYPE svg PUBLIC "-//W3C//DTD SVG 1.1//EN" "http://www.w3.org/Graphics/SVG/1.1/DTD/svg11.dtd">
<svg version="1.1" xmlns="http://www.w3.org/2000/svg" xmlns:xlink="http://www.w3.org/1999/xlink" x="0px" y="0px"
	 viewBox="0 0 20 20" enable-background="new 0 0 20 20" xml:space="preserve">
<g id="guias">
</g>
<g id="vector">
	<g id="otras-acc_1_" display="none">
		<g display="inline">
			<rect x="3.5" y="8.7" fill="#6F7173" width="2.5" height="2.5"/>
			<rect x="8.7" y="8.7" fill="#6F7173" width="2.5" height="2.5"/>
			<rect x="14" y="8.7" fill="#6F7173" width="2.5" height="2.5"/>
		</g>
	</g>
	<g id="anexos_1_" display="none">
		<path display="inline" fill="none" stroke="#6F7173" stroke-linecap="round" stroke-miterlimit="10" d="M4.5,10.2l5.3,5.3
			c1.4,1.4,3.6,1.4,4.9,0l0,0c1.4-1.4,1.4-3.6,0-4.9L8,3.8c-0.4-0.4-1-0.4-1.4,0L4.5,5.9c-0.4,0.4-0.4,1,0,1.4l5.3,5.3
			c0.6,0.6,1.5,0.6,2.1,0l0,0c0.6-0.6,0.6-1.5,0-2.1L8,6.6"/>
	</g>
	<g id="copia_1_">
		<path fill="#6F7173" d="M15,9.3c0.4-1.1,0.7-2.2,0.7-3.3V5.6L7.8,1v0.9c0,2.5-1.4,5.3-3.2,6.3l-4.2,2.5l2.9,1.7l-2.9,1.7l7.9,4.7
			L19.6,12L15,9.3z M2.3,10.7L5.1,9c1.9-1.1,3.4-3.8,3.7-6.4l6,3.5c-0.1,2.4-1.5,5.1-3.2,6.1l-3.2,1.9L2.3,10.7z M2.3,14.1l1.9-1.1
			l4,2.4l3.7-2.2c1-0.6,1.9-1.7,2.6-3l3.1,1.8l-9.4,5.6L2.3,14.1z"/>
	</g>
	<g id="compartir_1_" display="none">
		<path display="inline" fill="#6F7173" d="M15,15.9H5c-0.8,0-1.5-0.7-1.5-1.5v-3.8c0-0.3,0.2-0.5,0.5-0.5s0.5,0.2,0.5,0.5v3.8
			c0,0.3,0.2,0.5,0.5,0.5h10c0.3,0,0.5-0.2,0.5-0.5v-3.8c0-0.3,0.2-0.5,0.5-0.5s0.5,0.2,0.5,0.5v3.8C16.5,15.2,15.8,15.9,15,15.9z"
			/>
		<path display="inline" fill="#6F7173" d="M12.5,7.6c-0.1,0-0.3,0-0.4-0.1L10,5.3L7.9,7.5c-0.2,0.2-0.5,0.2-0.7,0S7,6.9,7.1,6.7
			L10,3.9l2.9,2.9c0.2,0.2,0.2,0.5,0,0.7C12.8,7.6,12.6,7.6,12.5,7.6z"/>
		<path display="inline" fill="#6F7173" d="M10,11.9c-0.3,0-0.5-0.2-0.5-0.5V4.9c0-0.3,0.2-0.5,0.5-0.5s0.5,0.2,0.5,0.5v6.5
			C10.5,11.7,10.3,11.9,10,11.9z"/>
	</g>
	<g id="afectar_1_" display="none">
		<path display="inline" fill="#6F7173" d="M7,16.7c-0.2,0-0.4,0-0.6-0.1c-0.6-0.2-0.9-0.8-0.9-1.4V4.8c0-0.6,0.3-1.1,0.9-1.4
			C7,3.2,7.6,3.3,8,3.7l6.7,6.3L8,16.3C7.7,16.6,7.4,16.7,7,16.7z M7,4.3c-0.1,0-0.2,0-0.2,0c-0.1,0-0.3,0.2-0.3,0.5v10.4
			c0,0.3,0.2,0.4,0.3,0.5c0.1,0,0.3,0.1,0.5-0.1l5.9-5.6L7.3,4.4C7.2,4.3,7.1,4.3,7,4.3z"/>
	</g>
	<g id="cancelar_1_" display="none">
		<path display="inline" fill="#6F7173" d="M16,7H4C3.7,7,3.5,6.8,3.5,6.5S3.7,6,4,6h12c0.3,0,0.5,0.2,0.5,0.5S16.3,7,16,7z"/>
		<path display="inline" fill="#6F7173" d="M12,5c-0.3,0-0.5-0.2-0.5-0.5v-1h-3v1C8.5,4.8,8.3,5,8,5S7.5,4.8,7.5,4.5v-1
			c0-0.6,0.4-1,1-1h3c0.6,0,1,0.4,1,1v1C12.5,4.8,12.3,5,12,5z"/>
		<path display="inline" fill="#6F7173" d="M8.7,15.5c-0.3,0-0.5-0.2-0.5-0.5V8.5C8.2,8.2,8.5,8,8.7,8s0.5,0.2,0.5,0.5V15
			C9.2,15.3,9,15.5,8.7,15.5z"/>
		<path display="inline" fill="#6F7173" d="M11.4,15.5c-0.3,0-0.5-0.2-0.5-0.5V8.5c0-0.3,0.2-0.5,0.5-0.5s0.5,0.2,0.5,0.5V15
			C11.9,15.3,11.6,15.5,11.4,15.5z"/>
		<path display="inline" fill="#6F7173" d="M13,17.5H7.1c-0.8,0-1.5-0.7-1.5-1.5V8.5C5.6,8.2,5.8,8,6.1,8s0.5,0.2,0.5,0.5V16
			c0,0.3,0.2,0.5,0.5,0.5H13c0.3,0,0.5-0.2,0.5-0.5V8.5C13.5,8.2,13.7,8,14,8s0.5,0.2,0.5,0.5V16C14.5,16.8,13.8,17.5,13,17.5z"/>
	</g>
	<g id="deshacer_1_" display="none">
		<path display="inline" fill="#6F7173" d="M12.6,7.5H5.1l2.6-3.1c0.2-0.2,0.2-0.5-0.1-0.7C7.4,3.5,7.1,3.5,6.9,3.7L3.3,8l3.6,4.3
			c0.1,0.1,0.2,0.2,0.4,0.2c0.1,0,0.2,0,0.3-0.1c0.2-0.2,0.2-0.5,0.1-0.7L5.1,8.5h7.6C14.5,8.5,16,10,16,12s-1.5,3.5-3.4,3.5H3.5
			C3.2,15.5,3,15.7,3,16s0.2,0.5,0.5,0.5h9.1c2.4,0,4.4-2,4.4-4.5S15,7.5,12.6,7.5z"/>
	</g>
	<g id="imprimir_1_" display="none">
		<path display="inline" fill="#6F7173" d="M8,13.5h4c0.3,0,0.5-0.2,0.5-0.5s-0.2-0.5-0.5-0.5H8c-0.3,0-0.5,0.2-0.5,0.5
			S7.7,13.5,8,13.5z M12.5,14.5h-5C7.2,14.5,7,14.7,7,15s0.2,0.5,0.5,0.5h5c0.3,0,0.5-0.2,0.5-0.5S12.8,14.5,12.5,14.5z M16.4,5.7
			l-0.2-0.2h-1.7v-3h-9v3H3.8L3.6,5.7c0,0.1-1.1,1.3-1.1,3.8c0,2.5,1.1,3.8,1.1,3.8l0.1,0.2h1.2l-1.1,4h12.3l-1.1-4h1.2l0.1-0.2
			c0-0.1,1.1-1.3,1.1-3.8C17.5,7,16.4,5.7,16.4,5.7z M6.5,3.5h7v2h-0.2l-1,1H7.7l-1-1H6.5V3.5z M5.2,16.5l1.4-5h7l1.4,5H5.2z
			 M15.7,12.5h-1l-0.3-1c0.3,0,0.5-0.2,0.5-0.5c0-0.3-0.2-0.5-0.5-0.5h-9C5.2,10.5,5,10.7,5,11c0,0.3,0.2,0.5,0.5,0.5l-0.3,1H4.3
			c-0.2-0.4-0.8-1.4-0.8-3c0-1.6,0.5-2.6,0.8-3h2l1,1h5.4l1-1h2c0.2,0.4,0.8,1.4,0.8,3C16.5,11.1,16,12.1,15.7,12.5z"/>
		<circle display="inline" fill="#6F7173" cx="14.5" cy="8" r="0.8"/>
	</g>
	<g id="mas-info_1_" display="none">
		<path display="inline" fill="#6F7173" d="M10,8.2C9.6,8.2,9.2,8.6,9.2,9v3c0,0.4,0.3,0.8,0.8,0.8s0.8-0.3,0.8-0.8V9
			C10.8,8.6,10.4,8.2,10,8.2z M10,5.5c-0.6,0-1,0.4-1,1c0,0.6,0.4,1,1,1s1-0.4,1-1C11,5.9,10.6,5.5,10,5.5z M11.7,3
			C11.7,3,11.7,3,11.7,3L8.3,3c0,0,0,0,0,0C5.1,3,2.5,5.6,2.5,8.8c0,2.7,1.9,5,4.5,5.6v2.9l7.1-3.3c2-0.9,3.4-3,3.4-5.2
			C17.5,5.6,14.9,3,11.7,3z M13.7,13.1L8,15.7v-2.2l-0.4-0.1c-2.3-0.3-4.1-2.4-4.1-4.7C3.5,6.1,5.6,4,8.3,4c0,0,0,0,0,0h3.5
			c0,0,0,0,0,0c2.6,0,4.8,2.1,4.8,4.8C16.5,10.6,15.4,12.3,13.7,13.1z"/>
	</g>
</g>
<g id="line" display="none">
	<g id="otras-acc">
		<g display="inline">
			<rect x="3.5" y="8.7" fill="#6F7173" width="2.5" height="2.5"/>
			<rect x="8.7" y="8.7" fill="#6F7173" width="2.5" height="2.5"/>
			<rect x="14" y="8.7" fill="#6F7173" width="2.5" height="2.5"/>
		</g>
	</g>
	<g id="anexos">
		<path display="inline" fill="none" stroke="#6F7173" stroke-linecap="round" stroke-miterlimit="10" d="M4.5,10.2l5.3,5.3
			c1.4,1.4,3.6,1.4,4.9,0l0,0c1.4-1.4,1.4-3.6,0-4.9L8,3.8c-0.4-0.4-1-0.4-1.4,0L4.5,5.9c-0.4,0.4-0.4,1,0,1.4l5.3,5.3
			c0.6,0.6,1.5,0.6,2.1,0l0,0c0.6-0.6,0.6-1.5,0-2.1L8,6.6"/>
	</g>
	<g id="copia">
		<g display="inline">
			<g>
				<path fill="none" stroke="#6F7173" stroke-linecap="round" stroke-miterlimit="10" d="M8.3,1.8c0,2.6-1.5,5.6-3.5,6.8l-3.5,2
					l6.9,4.1l3.5-2c1.9-1.1,3.5-4.2,3.5-6.8L8.3,1.8z"/>
				<polyline fill="none" stroke="#6F7173" stroke-linecap="round" stroke-miterlimit="10" points="4.2,12.4 1.4,14.1 8.3,18.2 
					18.6,12 14.4,9.5 				"/>
			</g>
		</g>
	</g>
	<g id="compartir">
		<g display="inline">
			<path fill="none" stroke="#6F7173" stroke-linecap="round" stroke-miterlimit="10" d="M4,10.6l0,3.8c0,0.6,0.4,1,1,1l10,0
				c0.6,0,1-0.4,1-1v-3.8"/>
			<polyline fill="none" stroke="#6F7173" stroke-linecap="round" stroke-miterlimit="10" points="12.5,7.1 10,4.6 7.5,7.1 			"/>
			<line fill="none" stroke="#6F7173" stroke-linecap="round" stroke-miterlimit="10" x1="10" y1="11.4" x2="10" y2="4.6"/>
		</g>
	</g>
	<g id="afectar">
		<path display="inline" fill="none" stroke="#6F7173" stroke-linecap="round" stroke-miterlimit="10" d="M6,4.8l0,10.4
			c0,0.9,1,1.3,1.7,0.7L14,10L7.7,4.1C7,3.5,6,3.9,6,4.8z"/>
	</g>
	<g id="cancelar">
		<g display="inline">
			<line fill="none" stroke="#6F7173" stroke-linecap="round" stroke-miterlimit="10" x1="4" y1="6.5" x2="16" y2="6.5"/>
			<path fill="none" stroke="#6F7173" stroke-linecap="round" stroke-miterlimit="10" d="M8,4.5v-1C8,3.2,8.2,3,8.5,3l3,0
				C11.8,3,12,3.2,12,3.5v1"/>
			<line fill="none" stroke="#6F7173" stroke-linecap="round" stroke-miterlimit="10" x1="8.7" y1="8.5" x2="8.7" y2="15"/>
			<line fill="none" stroke="#6F7173" stroke-linecap="round" stroke-miterlimit="10" x1="11.4" y1="8.5" x2="11.4" y2="15"/>
			<path fill="none" stroke="#6F7173" stroke-linecap="round" stroke-miterlimit="10" d="M6.1,8.5V16c0,0.6,0.4,1,1,1H13
				c0.6,0,1-0.4,1-1V8.5"/>
		</g>
	</g>
	<g id="deshacer">
		<g display="inline">
			<line fill="none" stroke="#6F7173" stroke-linecap="round" stroke-miterlimit="10" x1="3.5" y1="16" x2="12.6" y2="16"/>
			<line fill="none" stroke="#6F7173" stroke-linecap="round" stroke-miterlimit="10" x1="12.6" y1="8" x2="4" y2="8"/>
			<path fill="none" stroke="#6F7173" stroke-linecap="round" stroke-miterlimit="10" d="M12.6,16c2.1,0,3.9-1.8,3.9-4s-1.7-4-3.9-4
				"/>
			<polyline fill="none" stroke="#6F7173" stroke-linecap="round" stroke-miterlimit="10" points="7.3,4 4,8 7.3,11.9 			"/>
		</g>
	</g>
	<g id="imprimir" display="inline">
		<g>
			<line fill="none" stroke="#6F7173" stroke-linecap="round" stroke-miterlimit="10" x1="7.5" y1="15" x2="12.5" y2="15"/>
			<line fill="none" stroke="#6F7173" stroke-linecap="round" stroke-miterlimit="10" x1="8" y1="13" x2="12" y2="13"/>
			<polyline fill="none" stroke="#6F7173" stroke-linecap="round" stroke-miterlimit="10" points="14,6 14,3 6,3 6,6 			"/>
			<polyline fill="none" stroke="#6F7173" stroke-linecap="round" stroke-miterlimit="10" points="6.1,11 4.5,17 15.5,17 13.9,11 
							"/>
			<path fill="none" stroke="#6F7173" stroke-miterlimit="10" d="M14.6,13H16c0,0,1-1.2,1-3.5S16,6,16,6h-2.5l-1,1h-5l-1-1H4
				c0,0-1,1.2-1,3.5S4,13,4,13h1.4"/>
			<line fill="none" stroke="#6F7173" stroke-linecap="round" stroke-miterlimit="10" x1="5.5" y1="11" x2="14.5" y2="11"/>
			<circle fill="#6F7173" cx="14.5" cy="8" r="0.8"/>
		</g>
	</g>
	<g id="mas-info">
		<g display="inline">
			
				<line fill="none" stroke="#6F7173" stroke-width="1.5" stroke-linecap="round" stroke-miterlimit="10" x1="10" y1="12" x2="10" y2="9"/>
			<circle fill="#6F7173" cx="10" cy="6.5" r="1"/>
			<path fill="none" stroke="#6F7173" stroke-linecap="round" stroke-miterlimit="10" d="M8.3,3.5C5.4,3.5,3,5.9,3,8.8
				c0,2.6,2,4.8,4.5,5.2v2.6l6.4-3c1.8-0.8,3.1-2.7,3.1-4.8c0-2.9-2.4-5.3-5.3-5.3"/>
			<line fill="none" stroke="#6F7173" stroke-linecap="round" stroke-miterlimit="10" x1="11.7" y1="3.5" x2="8.3" y2="3.5"/>
		</g>
	</g>
</g>
<g id="gra-botón">
</g>
<g id="gra-fondo">
</g>
</svg>
