<?xml version="1.0" encoding="utf-8"?>
<!-- Generator: Adobe Illustrator 19.1.0, SVG Export Plug-In . SVG Version: 6.00 Build 0)  -->
<!DOCTYPE svg PUBLIC "-//W3C//DTD SVG 1.1//EN" "http://www.w3.org/Graphics/SVG/1.1/DTD/svg11.dtd">
<svg version="1.1" xmlns="http://www.w3.org/2000/svg" xmlns:xlink="http://www.w3.org/1999/xlink" x="0px" y="0px"
	 viewBox="0 0 20 20" enable-background="new 0 0 20 20" xml:space="preserve">
<g id="guias">
</g>
<g id="vector">
	<g id="otras-acc_1_" display="none">
		<g display="inline">
			<rect x="3.5" y="8.7" fill="#6F7173" width="2.5" height="2.5"/>
			<rect x="8.7" y="8.7" fill="#6F7173" width="2.5" height="2.5"/>
			<rect x="14" y="8.7" fill="#6F7173" width="2.5" height="2.5"/>
		</g>
	</g>
	<g id="anexos_1_" display="none">
		<path display="inline" fill="none" stroke="#6F7173" stroke-linecap="round" stroke-miterlimit="10" d="M4.5,10.2l5.3,5.3
			c1.4,1.4,3.6,1.4,4.9,0l0,0c1.4-1.4,1.4-3.6,0-4.9L8,3.8c-0.4-0.4-1-0.4-1.4,0L4.5,5.9c-0.4,0.4-0.4,1,0,1.4l5.3,5.3
			c0.6,0.6,1.5,0.6,2.1,0l0,0c0.6-0.6,0.6-1.5,0-2.1L8,6.6"/>
	</g>
	<g id="copia_1_" display="none">
		<g display="inline">
			<g>
				<path fill="none" stroke="#6F7173" stroke-linecap="round" stroke-miterlimit="10" d="M8.3,1.8c0,2.6-1.5,5.6-3.5,6.8l-3.5,2
					l6.9,4.1l3.5-2c1.9-1.1,3.5-4.2,3.5-6.8L8.3,1.8z"/>
				<polyline fill="none" stroke="#6F7173" stroke-linecap="round" stroke-miterlimit="10" points="4.2,12.4 1.4,14.1 8.3,18.2 
					18.6,12 14.4,9.5 				"/>
			</g>
		</g>
	</g>
	<g id="compartir_1_" display="none">
		<g display="inline">
			<path fill="none" stroke="#6F7173" stroke-linecap="round" stroke-miterlimit="10" d="M4,10.6l0,3.8c0,0.6,0.4,1,1,1l10,0
				c0.6,0,1-0.4,1-1v-3.8"/>
			<polyline fill="none" stroke="#6F7173" stroke-linecap="round" stroke-miterlimit="10" points="12.5,7.1 10,4.6 7.5,7.1 			"/>
			<line fill="none" stroke="#6F7173" stroke-linecap="round" stroke-miterlimit="10" x1="10" y1="11.4" x2="10" y2="4.6"/>
		</g>
	</g>
	<g id="afectar_1_" display="none">
		<path display="inline" fill="none" stroke="#6F7173" stroke-linecap="round" stroke-miterlimit="10" d="M6,4.8l0,10.4
			c0,0.9,1,1.3,1.7,0.7L14,10L7.7,4.1C7,3.5,6,3.9,6,4.8z"/>
	</g>
	<g id="cancelar_1_" display="none">
		<g display="inline">
			<line fill="none" stroke="#6F7173" stroke-linecap="round" stroke-miterlimit="10" x1="4" y1="6.5" x2="16" y2="6.5"/>
			<path fill="none" stroke="#6F7173" stroke-linecap="round" stroke-miterlimit="10" d="M8,4.5v-1C8,3.2,8.2,3,8.5,3l3,0
				C11.8,3,12,3.2,12,3.5v1"/>
			<line fill="none" stroke="#6F7173" stroke-linecap="round" stroke-miterlimit="10" x1="8.7" y1="8.5" x2="8.7" y2="15"/>
			<line fill="none" stroke="#6F7173" stroke-linecap="round" stroke-miterlimit="10" x1="11.4" y1="8.5" x2="11.4" y2="15"/>
			<path fill="none" stroke="#6F7173" stroke-linecap="round" stroke-miterlimit="10" d="M6.1,8.5V16c0,0.6,0.4,1,1,1H13
				c0.6,0,1-0.4,1-1V8.5"/>
		</g>
	</g>
	<g id="deshacer_1_" display="none">
		<g display="inline">
			<line fill="none" stroke="#6F7173" stroke-linecap="round" stroke-miterlimit="10" x1="3.5" y1="16" x2="12.6" y2="16"/>
			<line fill="none" stroke="#6F7173" stroke-linecap="round" stroke-miterlimit="10" x1="12.6" y1="8" x2="4" y2="8"/>
			<path fill="none" stroke="#6F7173" stroke-linecap="round" stroke-miterlimit="10" d="M12.6,16c2.1,0,3.9-1.8,3.9-4s-1.7-4-3.9-4
				"/>
			<polyline fill="none" stroke="#6F7173" stroke-linecap="round" stroke-miterlimit="10" points="7.3,4 4,8 7.3,11.9 			"/>
		</g>
	</g>
	<g id="imprimir_1_" display="none">
		<g display="inline">
			<line fill="none" stroke="#6F7173" stroke-linecap="round" stroke-miterlimit="10" x1="7.5" y1="15" x2="12.5" y2="15"/>
			<line fill="none" stroke="#6F7173" stroke-linecap="round" stroke-miterlimit="10" x1="8" y1="13" x2="12" y2="13"/>
			<polyline fill="none" stroke="#6F7173" stroke-linecap="round" stroke-miterlimit="10" points="14,6 14,3 6,3 6,6 			"/>
			<polyline fill="none" stroke="#6F7173" stroke-linecap="round" stroke-miterlimit="10" points="6.1,11 4.5,17 15.5,17 13.9,11 
							"/>
			<path fill="none" stroke="#6F7173" stroke-linecap="round" stroke-miterlimit="10" d="M14.4,13H16c0,0,1-1.2,1-3.5S16,6,16,6
				h-2.5l-1,1h-5l-1-1H4c0,0-1,1.2-1,3.5S4,13,4,13h1.6"/>
			<line fill="none" stroke="#6F7173" stroke-linecap="round" stroke-miterlimit="10" x1="5.5" y1="11" x2="14.5" y2="11"/>
			<circle fill="#6F7173" cx="14.5" cy="8" r="0.8"/>
		</g>
	</g>
	<g id="mas-info_1_">
		<path fill="#6F7173" d="M10,8.2C9.6,8.2,9.2,8.6,9.2,9v3c0,0.4,0.3,0.8,0.8,0.8s0.8-0.3,0.8-0.8V9C10.8,8.6,10.4,8.2,10,8.2z
			 M10,5.5c-0.6,0-1,0.4-1,1c0,0.6,0.4,1,1,1s1-0.4,1-1C11,5.9,10.6,5.5,10,5.5z M11.7,3C11.7,3,11.7,3,11.7,3L8.3,3c0,0,0,0,0,0
			C5.1,3,2.5,5.6,2.5,8.8c0,2.7,1.9,5,4.5,5.6v2.9l7.1-3.3c2-0.9,3.4-3,3.4-5.2C17.5,5.6,14.9,3,11.7,3z M13.7,13.1L8,15.7v-2.2
			l-0.4-0.1c-2.3-0.3-4.1-2.4-4.1-4.7C3.5,6.1,5.6,4,8.3,4c0,0,0,0,0,0h3.5c0,0,0,0,0,0c2.6,0,4.8,2.1,4.8,4.8
			C16.5,10.6,15.4,12.3,13.7,13.1z"/>
	</g>
</g>
<g id="line" display="none">
	<g id="otras-acc">
		<g display="inline">
			<rect x="3.5" y="8.7" fill="#6F7173" width="2.5" height="2.5"/>
			<rect x="8.7" y="8.7" fill="#6F7173" width="2.5" height="2.5"/>
			<rect x="14" y="8.7" fill="#6F7173" width="2.5" height="2.5"/>
		</g>
	</g>
	<g id="anexos">
		<path display="inline" fill="none" stroke="#6F7173" stroke-linecap="round" stroke-miterlimit="10" d="M4.5,10.2l5.3,5.3
			c1.4,1.4,3.6,1.4,4.9,0l0,0c1.4-1.4,1.4-3.6,0-4.9L8,3.8c-0.4-0.4-1-0.4-1.4,0L4.5,5.9c-0.4,0.4-0.4,1,0,1.4l5.3,5.3
			c0.6,0.6,1.5,0.6,2.1,0l0,0c0.6-0.6,0.6-1.5,0-2.1L8,6.6"/>
	</g>
	<g id="copia">
		<g display="inline">
			<g>
				<path fill="none" stroke="#6F7173" stroke-linecap="round" stroke-miterlimit="10" d="M8.3,1.8c0,2.6-1.5,5.6-3.5,6.8l-3.5,2
					l6.9,4.1l3.5-2c1.9-1.1,3.5-4.2,3.5-6.8L8.3,1.8z"/>
				<polyline fill="none" stroke="#6F7173" stroke-linecap="round" stroke-miterlimit="10" points="4.2,12.4 1.4,14.1 8.3,18.2 
					18.6,12 14.4,9.5 				"/>
			</g>
		</g>
	</g>
	<g id="compartir">
		<g display="inline">
			<path fill="none" stroke="#6F7173" stroke-linecap="round" stroke-miterlimit="10" d="M4,10.6l0,3.8c0,0.6,0.4,1,1,1l10,0
				c0.6,0,1-0.4,1-1v-3.8"/>
			<polyline fill="none" stroke="#6F7173" stroke-linecap="round" stroke-miterlimit="10" points="12.5,7.1 10,4.6 7.5,7.1 			"/>
			<line fill="none" stroke="#6F7173" stroke-linecap="round" stroke-miterlimit="10" x1="10" y1="11.4" x2="10" y2="4.6"/>
		</g>
	</g>
	<g id="afectar">
		<path display="inline" fill="none" stroke="#6F7173" stroke-linecap="round" stroke-miterlimit="10" d="M6,4.8l0,10.4
			c0,0.9,1,1.3,1.7,0.7L14,10L7.7,4.1C7,3.5,6,3.9,6,4.8z"/>
	</g>
	<g id="cancelar">
		<g display="inline">
			<line fill="none" stroke="#6F7173" stroke-linecap="round" stroke-miterlimit="10" x1="4" y1="6.5" x2="16" y2="6.5"/>
			<path fill="none" stroke="#6F7173" stroke-linecap="round" stroke-miterlimit="10" d="M8,4.5v-1C8,3.2,8.2,3,8.5,3l3,0
				C11.8,3,12,3.2,12,3.5v1"/>
			<line fill="none" stroke="#6F7173" stroke-linecap="round" stroke-miterlimit="10" x1="8.7" y1="8.5" x2="8.7" y2="15"/>
			<line fill="none" stroke="#6F7173" stroke-linecap="round" stroke-miterlimit="10" x1="11.4" y1="8.5" x2="11.4" y2="15"/>
			<path fill="none" stroke="#6F7173" stroke-linecap="round" stroke-miterlimit="10" d="M6.1,8.5V16c0,0.6,0.4,1,1,1H13
				c0.6,0,1-0.4,1-1V8.5"/>
		</g>
	</g>
	<g id="deshacer">
		<g display="inline">
			<line fill="none" stroke="#6F7173" stroke-linecap="round" stroke-miterlimit="10" x1="3.5" y1="16" x2="12.6" y2="16"/>
			<line fill="none" stroke="#6F7173" stroke-linecap="round" stroke-miterlimit="10" x1="12.6" y1="8" x2="4" y2="8"/>
			<path fill="none" stroke="#6F7173" stroke-linecap="round" stroke-miterlimit="10" d="M12.6,16c2.1,0,3.9-1.8,3.9-4s-1.7-4-3.9-4
				"/>
			<polyline fill="none" stroke="#6F7173" stroke-linecap="round" stroke-miterlimit="10" points="7.3,4 4,8 7.3,11.9 			"/>
		</g>
	</g>
	<g id="imprimir" display="inline">
		<g>
			<line fill="none" stroke="#6F7173" stroke-linecap="round" stroke-miterlimit="10" x1="7.5" y1="15" x2="12.5" y2="15"/>
			<line fill="none" stroke="#6F7173" stroke-linecap="round" stroke-miterlimit="10" x1="8" y1="13" x2="12" y2="13"/>
			<polyline fill="none" stroke="#6F7173" stroke-linecap="round" stroke-miterlimit="10" points="14,6 14,3 6,3 6,6 			"/>
			<polyline fill="none" stroke="#6F7173" stroke-linecap="round" stroke-miterlimit="10" points="6.1,11 4.5,17 15.5,17 13.9,11 
							"/>
			<path fill="none" stroke="#6F7173" stroke-miterlimit="10" d="M14.6,13H16c0,0,1-1.2,1-3.5S16,6,16,6h-2.5l-1,1h-5l-1-1H4
				c0,0-1,1.2-1,3.5S4,13,4,13h1.4"/>
			<line fill="none" stroke="#6F7173" stroke-linecap="round" stroke-miterlimit="10" x1="5.5" y1="11" x2="14.5" y2="11"/>
			<circle fill="#6F7173" cx="14.5" cy="8" r="0.8"/>
		</g>
	</g>
	<g id="mas-info">
		<g display="inline">
			
				<line fill="none" stroke="#6F7173" stroke-width="1.5" stroke-linecap="round" stroke-miterlimit="10" x1="10" y1="12" x2="10" y2="9"/>
			<circle fill="#6F7173" cx="10" cy="6.5" r="1"/>
			<path fill="none" stroke="#6F7173" stroke-linecap="round" stroke-miterlimit="10" d="M8.3,3.5C5.4,3.5,3,5.9,3,8.8
				c0,2.6,2,4.8,4.5,5.2v2.6l6.4-3c1.8-0.8,3.1-2.7,3.1-4.8c0-2.9-2.4-5.3-5.3-5.3"/>
			<line fill="none" stroke="#6F7173" stroke-linecap="round" stroke-miterlimit="10" x1="11.7" y1="3.5" x2="8.3" y2="3.5"/>
		</g>
	</g>
</g>
<g id="gra-botón">
</g>
<g id="gra-fondo">
</g>
</svg>
